<?xml version="1.0" encoding="UTF-8"?>
<svg width="32" height="32" viewBox="0 0 32 32" fill="none" xmlns="http://www.w3.org/2000/svg">
  <!-- 简化版发票图标 -->
  <rect x="6" y="4" width="20" height="24" rx="2" fill="#3B82F6"/>
  
  <!-- 内容线条 -->
  <rect x="9" y="9" width="14" height="1.5" rx="0.75" fill="white" opacity="0.9"/>
  <rect x="9" y="12" width="10" height="1.5" rx="0.75" fill="white" opacity="0.7"/>
  <rect x="9" y="15" width="14" height="1.5" rx="0.75" fill="white" opacity="0.9"/>
  <rect x="9" y="18" width="8" height="1.5" rx="0.75" fill="white" opacity="0.7"/>
  
  <!-- 小美元符号 -->
  <circle cx="20.5" cy="23.5" r="3" fill="#10B981"/>
  <path d="M20.5 22 L20.5 25 M19.5 22.5 C19.5 22.5 20.5 21.5 21.5 22.5 C21.5 22.5 21.5 23.5 20.5 23.5 C19.5 23.5 19.5 24.5 19.5 24.5 C19.5 24.5 20.5 25.5 21.5 24.5" 
        stroke="white" stroke-width="0.8" stroke-linecap="round" stroke-linejoin="round"/>
</svg>